<svg width="30" height="30" viewBox="0 0 30 30" fill="none" xmlns="http://www.w3.org/2000/svg">
<circle cx="15" cy="15" r="15" fill="#1814F3"/>
<g clip-path="url(#clip0_2_383)">
<path d="M22.587 11.1632L21.2364 12.5138C21.0987 12.6515 20.876 12.6515 20.7383 12.5138L17.4864 9.26184C17.3487 9.12415 17.3487 8.90149 17.4864 8.76379L18.837 7.41321C19.3848 6.86536 20.2754 6.86536 20.8262 7.41321L22.587 9.17395C23.1377 9.7218 23.1377 10.6124 22.587 11.1632ZM16.3262 9.92395L8.63285 17.6173L8.01176 21.1769C7.9268 21.6573 8.34574 22.0734 8.82621 21.9913L12.3858 21.3673L20.0791 13.674C20.2168 13.5363 20.2168 13.3136 20.0791 13.1759L16.8272 9.92395C16.6866 9.78626 16.4639 9.78626 16.3262 9.92395ZM11.6358 16.9581C11.4746 16.797 11.4746 16.5392 11.6358 16.3781L16.1475 11.8663C16.3086 11.7052 16.5664 11.7052 16.7276 11.8663C16.8887 12.0275 16.8887 12.2853 16.7276 12.4464L12.2159 16.9581C12.0547 17.1193 11.7969 17.1193 11.6358 16.9581ZM10.5782 19.422H11.9844V20.4855L10.0948 20.8165L9.18363 19.9054L9.51469 18.0157H10.5782V19.422Z" fill="white"/>
</g>
<defs>
<clipPath id="clip0_2_383">
<rect width="15" height="15" fill="white" transform="translate(8 7)"/>
</clipPath>
</defs>
</svg>
