<svg width="20" height="20" viewBox="0 0 20 20" fill="currentColor" xmlns="http://www.w3.org/2000/svg">
<g clip-path="url(#clip0_5002_1338)">
<path d="M3.84903 13.3343C4.05015 13.4539 4.22283 13.6097 4.36063 13.7896H6.96476V11.2645L5.72995 10.4989C5.45494 10.3284 5.37022 9.96723 5.54071 9.69221C5.71124 9.41728 6.07226 9.33256 6.34739 9.50297L7.55064 10.249L8.59945 9.59875C6.50753 6.73027 6.98796 2.66576 9.7725 0.371683C5.18574 -1.16489 0.374203 2.2508 0.352486 7.15648C0.341159 9.75807 1.72622 12.0705 3.84903 13.3343Z" fill="currentColor"/>
<path d="M4.72705 14.9614H10.2734V16.2894H4.72705V14.9614Z" fill="currentColor"/>
<path d="M8.13647 11.2646V13.7897H10.6319C10.7644 13.6149 10.9297 13.4651 11.1221 13.3518C11.6546 13.0384 12.1435 12.656 12.5768 12.2185C11.3529 11.9429 10.2537 11.3343 9.37972 10.4932C9.3464 10.5148 9.10623 10.6633 8.13647 11.2646Z" fill="currentColor"/>
<path d="M14.0621 0.00195312C10.9899 0.00195312 8.47668 2.54066 8.47668 5.62642C8.47668 8.52896 10.7048 10.9324 13.5617 11.1889C16.8679 11.4843 19.6475 8.8635 19.6475 5.62642C19.6475 2.54663 17.1419 0.00195312 14.0621 0.00195312ZM14.6488 8.16587V8.28832C14.6488 8.61188 14.3864 8.8742 14.0629 8.8742C13.7393 8.8742 13.477 8.61188 13.477 8.28832V8.23211C13.2071 8.18477 12.9604 8.08377 12.6489 7.87992C12.3781 7.70279 12.3022 7.3397 12.4793 7.0689C12.6565 6.79807 13.0196 6.72222 13.2903 6.89931C13.5759 7.08617 13.6685 7.10074 14.0589 7.09804C14.4358 7.09554 14.586 6.79967 14.6153 6.62527C14.6417 6.46869 14.6121 6.2605 14.3217 6.1579C13.8353 5.98592 13.3365 5.78859 12.9831 5.51143C12.1784 4.88032 12.4214 3.43886 13.477 3.05526V2.97042C13.477 2.64686 13.7394 2.38454 14.0629 2.38454C14.3865 2.38454 14.6488 2.64686 14.6488 2.97042V3.00292C14.9375 3.0844 15.17 3.23177 15.3297 3.39417C15.5566 3.62485 15.5534 3.9958 15.3228 4.22269C15.0922 4.44946 14.7215 4.44646 14.4946 4.21617C14.4619 4.18425 14.2815 4.03376 13.8907 4.15144C13.7347 4.19843 13.6928 4.36021 13.6837 4.40869C13.6646 4.50985 13.6917 4.57804 13.7063 4.58945C13.9273 4.76279 14.3388 4.9211 14.7123 5.05312C16.2564 5.59892 16.0683 7.65268 14.6488 8.16587Z" fill="currentColor"/>
<path d="M5.66443 18.1642C5.66443 19.1765 6.48795 20 7.50019 20C8.51244 20 9.33596 19.1765 9.33596 18.1642V17.4612H5.66443V18.1642Z" fill="currentColor"/>
</g>
<defs>
<clipPath id="clip0_5002_1338">
<rect width="20" height="20" fill="currentColor"/>
</clipPath>
</defs>
</svg>
