<svg width="18" height="18" viewBox="0 0 18 18" fill="none" xmlns="http://www.w3.org/2000/svg">
<g clip-path="url(#clip0_5002_1237)">
<path d="M14.6159 9.55083C14.2806 9.55083 13.9493 9.59987 13.631 9.69659L9.527 10.8327V5.02822C9.527 4.73744 9.76357 4.50088 10.0543 4.50088C10.3451 4.50088 10.5817 4.73744 10.5817 5.02822V9.13054H11.109C13.1445 9.13054 14.8004 7.47457 14.8004 5.43913C14.8004 3.79202 13.6941 2.33061 12.1079 1.88462L5.29654 0V9.04029L2.56346 9.79685C2.24073 9.8776 1.93135 10.0059 1.64381 10.1783C0.0436018 11.1378 -0.477695 13.2203 0.481789 14.8205C0.861793 15.4542 1.42355 15.9361 2.10636 16.2139C2.5134 16.3795 2.95183 16.4636 3.38967 16.4635C3.66153 16.4635 3.93322 16.4312 4.19689 16.3658L5.29654 16.0615V16.9748L8.99966 18L15.5943 16.1745L15.6081 16.1705C16.2861 15.9628 16.8951 15.5347 17.3229 14.9651C17.7657 14.3757 17.9997 13.6736 17.9997 12.9347C17.9997 11.0688 16.4817 9.55083 14.6159 9.55083ZM5.29651 12.0037L2.52324 12.7714L2.80463 13.7879L5.29651 13.0981V14.9672L3.93652 15.3437C3.7497 15.3894 3.56197 15.4116 3.37666 15.4116C2.57302 15.4116 1.81604 14.9948 1.38632 14.2781C0.725914 13.1766 1.08472 11.7432 2.18616 11.0828C2.38599 10.963 2.60073 10.8741 2.82439 10.8187L5.29651 10.1346V12.0037ZM8.47231 5.02822V16.7597L6.35123 16.1725V1.38614L11.8246 2.90057C12.9558 3.21862 13.7457 4.26256 13.7457 5.43916C13.7457 6.71249 12.8384 7.7779 11.6364 8.0229V5.02822C11.6364 4.15589 10.9267 3.44619 10.0543 3.44619C9.18201 3.44619 8.47231 4.15589 8.47231 5.02822ZM15.3056 15.16L9.527 16.7597V14.8905L15.4765 13.2436L15.1951 12.2271L9.527 13.7962V11.927L13.9189 10.7112L13.9327 10.7072C14.153 10.6397 14.3829 10.6055 14.6159 10.6055C15.9002 10.6055 16.945 11.6504 16.945 12.9346C16.945 13.963 16.2864 14.8565 15.3056 15.16Z" fill="#396AFF"/>
</g>
<defs>
<clipPath id="clip0_5002_1237">
<rect width="18" height="18" fill="white"/>
</clipPath>
</defs>
</svg>
