<svg width="20" height="20" viewBox="0 0 20 20" fill="none" xmlns="http://www.w3.org/2000/svg">
<g clip-path="url(#clip0_5002_1112)">
<path d="M18.6544 9.57696H17.4648C17.1941 8.81946 16.7577 8.14125 16.1993 7.58684L18.0338 6.77699C18.2959 6.66129 18.4394 6.37215 18.3649 6.09558C18.1436 5.2746 17.3969 4.67065 16.5097 4.67065H14.9966C14.1266 4.67065 13.3919 5.25179 13.1552 6.04871H11.5571C10.957 8.26579 8.92958 9.90153 6.52739 9.90153C5.06101 9.90153 3.73441 9.29188 2.78671 8.31278C2.51979 8.6936 2.30116 9.11102 2.14003 9.55622C1.66139 9.45149 1.26783 9.0729 1.15779 8.57985C1.08733 8.26399 0.773926 8.06489 0.4583 8.13563C0.142478 8.20614 -0.0564285 8.5193 0.0140795 8.83512C0.133924 9.37212 0.435526 9.8597 0.863302 10.2079C1.15608 10.4463 1.50034 10.6122 1.8651 10.6954C1.8367 10.9188 1.82202 11.1464 1.82202 11.3774V11.9456C1.82202 14.0989 3.09335 15.9536 4.92293 16.7941V18.0853C4.92293 18.7881 5.49266 19.3578 6.19543 19.3578C6.89821 19.3578 7.46794 18.7881 7.46794 18.0853V17.2743H12.2348V18.0853C12.2348 18.7881 12.8046 19.3578 13.5073 19.3578C14.2101 19.3578 14.7798 18.7881 14.7798 18.0853V16.7444C16.1176 16.0937 17.142 14.895 17.5643 13.4385H18.6543C19.3975 13.4385 19.9999 12.8333 19.9999 12.0866V10.9288C20 10.1822 19.3976 9.57696 18.6544 9.57696ZM14.3308 9.91524C14.0084 9.91524 13.747 9.65388 13.747 9.33141C13.747 9.00895 14.0084 8.74758 14.3308 8.74758C14.6533 8.74758 14.9146 9.00895 14.9146 9.33141C14.9146 9.65388 14.6533 9.91524 14.3308 9.91524Z" fill="#16DBCC"/>
<path d="M6.52762 0.642334C4.30062 0.642334 2.48889 2.45633 2.48889 4.68598C2.48889 6.91568 4.30066 8.72967 6.52762 8.72967C8.75458 8.72967 10.5663 6.91568 10.5663 4.68598C10.5663 2.45625 8.75451 0.642334 6.52762 0.642334ZM6.15258 4.06813H6.90266C7.74876 4.06813 8.43708 4.75696 8.43708 5.60364C8.43708 6.37865 7.86017 7.02103 7.11356 7.12423V7.34431C7.11356 7.66791 6.85122 7.93025 6.52762 7.93025C6.20403 7.93025 5.94168 7.66791 5.94168 7.34431V7.13908H5.79219C5.14484 7.13908 4.61812 6.61212 4.61812 5.96439C4.61812 5.64079 4.88047 5.37845 5.20406 5.37845C5.52766 5.37845 5.79 5.64079 5.79 5.96439L6.90262 5.9672C7.10254 5.9672 7.26516 5.80407 7.26516 5.6036C7.26516 5.40313 7.10254 5.24001 6.90262 5.24001H6.15254C5.30644 5.24001 4.61812 4.55122 4.61812 3.70453C4.61812 2.92949 5.19504 2.28711 5.94168 2.1839V2.02769C5.94168 1.7041 6.20403 1.44175 6.52762 1.44175C6.85122 1.44175 7.11356 1.7041 7.11356 2.02769V2.16902H7.26301C7.91036 2.16902 8.43708 2.69601 8.43708 3.34375C8.43708 3.66735 8.17474 3.92969 7.85114 3.92969C7.52755 3.92969 7.2652 3.66735 7.2652 3.34375C7.2652 3.34281 7.26512 3.34242 7.26512 3.34242L6.15258 3.3409C5.95266 3.3409 5.79004 3.50402 5.79004 3.70453C5.79004 3.905 5.95266 4.06813 6.15258 4.06813Z" fill="#16DBCC"/>
</g>
<defs>
<clipPath id="clip0_5002_1112">
<rect width="20" height="20" fill="white"/>
</clipPath>
</defs>
</svg>
