<svg width="20" height="20" viewBox="0 0 20 20" fill="none" xmlns="http://www.w3.org/2000/svg">
<g clip-path="url(#clip0_5002_1153)">
<path d="M18.7938 10.4423C18.4726 10.4038 18.181 10.6333 18.1426 10.9546C17.661 14.9893 14.2248 18.032 10.1497 18.032C6.48442 18.032 3.33673 15.5707 2.38994 12.1402L3.09092 12.5252C3.37457 12.681 3.73086 12.5772 3.8865 12.2937C4.04229 12.0101 3.93868 11.6538 3.65503 11.498L1.85696 10.5105C1.57361 10.3548 1.21762 10.4581 1.06168 10.7413L0.0727752 12.5371C-0.0833198 12.8206 0.0199806 13.1769 0.303332 13.333C0.595991 13.4699 0.930459 13.4026 1.09922 13.1024L1.3284 12.6863C2.48943 16.4949 6.0349 19.2039 10.1497 19.2039C14.8179 19.2039 18.7543 15.7171 19.306 11.0935C19.3445 10.7721 19.115 10.4806 18.7938 10.4423Z" fill="#16DBCC"/>
<path d="M19.6455 5.78493C19.3486 5.65691 19.0037 5.79378 18.8755 6.09101L18.6909 6.51886C18.114 5.10821 17.1881 3.84587 15.9955 2.86856C14.3535 1.5226 12.2774 0.781494 10.1496 0.781494C8.02183 0.781494 5.94575 1.5226 4.30362 2.86856C2.68423 4.19575 1.55571 6.04814 1.12603 8.08424C1.05919 8.40085 1.26183 8.71167 1.57844 8.7785C1.8946 8.84534 2.20587 8.64285 2.27255 8.32624C2.64746 6.54999 3.63255 4.93365 5.04641 3.77477C6.47949 2.60016 8.2919 1.95335 10.1496 1.95335C12.0072 1.95335 13.8196 2.60016 15.2527 3.77477C16.3542 4.67746 17.1953 5.85802 17.6906 7.17544L16.9487 6.85638C16.6515 6.72867 16.3068 6.86584 16.1789 7.16308C16.051 7.46032 16.1884 7.80485 16.4856 7.93272L18.3703 8.74341C18.6911 8.87601 19.0034 8.74051 19.14 8.43717L19.9516 6.55487C20.0797 6.25779 19.9427 5.9131 19.6455 5.78493Z" fill="#16DBCC"/>
<path d="M13.7609 5.68234C13.9291 5.34314 13.9549 4.95863 13.8339 4.5999C13.7129 4.24117 13.4594 3.95111 13.1202 3.78296C12.4199 3.43598 11.568 3.72345 11.2208 4.42366C11.145 4.57686 11.0983 4.73921 11.0809 4.90431C10.6283 4.86265 10.1683 4.90477 9.72245 5.03309C8.83501 5.28821 8.08017 5.86224 7.59709 6.64912L6.01493 9.22599C5.8036 9.18815 5.58509 9.20386 5.37605 9.27436C5.04906 9.38468 4.78463 9.61569 4.63159 9.92468L4.52722 10.1351C4.21106 10.7732 4.4729 11.5497 5.11116 11.8659L8.5361 13.5629C8.19888 14.2645 8.34994 15.0529 9.22517 15.4933C9.99252 15.8085 10.8467 15.4997 11.1784 14.8723L11.5405 15.0516C11.7215 15.1413 11.9165 15.1866 12.1127 15.1866C12.2517 15.1866 12.3913 15.1639 12.5268 15.1181C12.8537 15.0079 13.1181 14.7769 13.2713 14.4678L13.3755 14.2573C13.5287 13.9482 13.5523 13.598 13.442 13.271C13.3715 13.062 13.2516 12.8786 13.0935 12.7333L14.1854 9.91369C14.5188 9.0525 14.5182 8.10418 14.1837 7.2436C14.0157 6.81117 13.7705 6.41964 13.4634 6.08471C13.5841 5.97088 13.6851 5.83554 13.7609 5.68234ZM12.4899 4.80528C12.6258 4.80528 12.736 4.91545 12.736 5.05125C12.736 5.1872 12.6258 5.29722 12.4899 5.29722C12.3541 5.29722 12.2439 5.18705 12.2439 5.05125C12.2439 4.91545 12.3541 4.80528 12.4899 4.80528ZM9.97757 14.4589C9.90067 14.485 9.81827 14.4794 9.74549 14.4433C9.67271 14.4073 9.61839 14.3451 9.59245 14.2682C9.57215 14.2081 9.57139 14.1444 9.58924 14.0849L10.1254 14.3506C10.0887 14.4008 10.0377 14.4388 9.97757 14.4589ZM13.0926 9.49057L11.9032 12.5618C11.7358 12.9413 11.8959 13.3905 12.2711 13.5767H12.2712C12.3324 13.6093 12.3549 13.6765 12.3256 13.7372L12.2212 13.9476C12.1862 14.0086 12.124 14.0286 12.0608 14.0016L5.63148 10.8159C5.57228 10.7866 5.54786 10.7146 5.57716 10.6556L5.68153 10.4451C5.70976 10.3931 5.76453 10.3562 5.84205 10.391C6.02896 10.4836 6.24075 10.4978 6.4385 10.4313C6.62512 10.3682 6.77816 10.2402 6.87261 10.0689L8.5956 7.26237C8.92534 6.72526 9.44062 6.33342 10.0464 6.15917C10.652 5.98492 11.2967 6.04305 11.8612 6.3229C11.8614 6.3229 11.8614 6.3229 11.8615 6.32305C11.8617 6.32305 11.8617 6.32305 11.8618 6.3232C12.4266 6.60304 12.8633 7.08064 13.0915 7.66809C13.3198 8.25555 13.3201 8.90281 13.0926 9.49057Z" fill="#16DBCC"/>
</g>
<defs>
<clipPath id="clip0_5002_1153">
<rect width="20" height="20" fill="white"/>
</clipPath>
</defs>
</svg>
